<?xml version="1.0" encoding="utf-8" ?><svg xmlns="http://www.w3.org/2000/svg" xmlns:xlink="http://www.w3.org/1999/xlink" width="313" height="313" viewBox="0 0 313 313"><path fill="#F9F8F4" d="M244.195 244.037C239.04 252.663 221.37 265.817 212.49 270.475C184.77 285.014 148.484 284.709 119.188 275.062C96.0104 267.43 74.5057 249.987 63.4862 228.13C42.7055 187.058 58.5386 148.611 79.8783 112.051C89.26 95.9566 99.5972 80.4388 110.834 65.5805C115.284 59.7661 119.325 54.476 124.413 49.1801C133.062 40.1756 144.43 33.3821 156.841 31.2485C164.113 29.9985 176.328 29.9901 183.355 32.3011C187.226 33.0279 195.031 34.9914 198.301 37.0773C200.34 37.8017 203.609 39.6863 205.43 40.8973C216.191 48.0551 223.539 56.7159 229.018 68.3093C236.747 84.6656 235.765 102.063 229.931 118.82C227.549 125.663 223.861 132.755 219.946 138.869C218.015 141.884 215.628 144.671 213.668 147.856C217.111 148.551 231.83 153.869 233.582 156.594C246.529 165.306 254.302 177.464 257.326 192.762C259.392 203.219 258.353 210.41 255.909 220.597C254.147 226.839 248.877 239.658 244.195 244.037ZM113.059 197.97C113.176 197.896 113.293 197.822 113.41 197.747C114.485 187.641 122.114 170.458 128.65 163.955C129.67 161.077 143.586 147.169 146.372 144.343C151.311 139.41 156.411 134.558 160.893 129.204C163.258 126.378 165.586 123.438 168.02 120.68C168.341 120.085 168.973 119.204 169.383 118.645C173.227 113.413 176.007 108.233 178.597 102.291C180.791 95.9456 182.723 90.3676 180.113 83.6519C177.565 77.0975 167.663 77.0679 162.75 80.2037C145.926 90.9428 130.053 114.143 121.11 131.662C118.124 137.606 115.615 143.778 113.609 150.121C108.775 165.296 106.518 179.542 111.66 194.861C112.061 195.821 112.551 197.101 113.059 197.97ZM171.443 187.544C160.627 200.659 155.288 209.407 157.418 226.825C157.525 227.699 157.705 228.447 158.265 229.141C158.68 229.276 159.1 229.417 159.516 229.547C161.495 229.554 163.844 229.975 165.946 230.011C182.84 230.301 199.626 225.535 209.978 211.302C218.87 199.078 216.099 186.045 202.173 179.533C195.906 176.603 190.383 175.561 183.414 176.902C178.492 179.913 175.424 183.842 171.443 187.544Z"/><path fill="#F9F8F4" d="M178.597 102.291C180.955 99.2073 181.557 93.7899 182.75 90.2185C183.042 91.8749 182.485 92.8955 182.294 94.3208C183.259 94.1382 184.085 93.1502 184.717 92.2342C196.273 75.4796 180.765 59.8412 182.421 42.327C182.655 39.8548 183.3 34.9109 183.246 33.0443C181.923 32.7728 180.608 32.4636 179.303 32.1172C180.474 31.982 181.428 32.395 183.058 32.3167L183.355 32.3011C187.226 33.0279 195.031 34.9914 198.301 37.0773C200.34 37.8017 203.609 39.6863 205.43 40.8973C216.191 48.0551 223.539 56.7159 229.018 68.3093C236.747 84.6656 235.765 102.063 229.931 118.82C227.549 125.663 223.861 132.755 219.946 138.869C218.015 141.884 215.628 144.671 213.668 147.856C205.121 157.702 196.595 166.369 186.341 174.466C185.469 175.154 184.191 176.156 183.414 176.902C178.492 179.913 175.424 183.842 171.443 187.544C160.627 200.659 155.288 209.407 157.418 226.825C157.525 227.699 157.705 228.447 158.265 229.141C158.68 229.276 159.1 229.417 159.516 229.547C158.705 229.508 157.855 229.43 157.041 229.369C142.208 227.316 128.721 219.667 119.348 207.988C118.157 206.461 113.55 199.737 113.059 197.97C113.176 197.896 113.293 197.822 113.41 197.747C114.485 187.641 122.114 170.458 128.65 163.955C129.67 161.077 143.586 147.169 146.372 144.343C151.311 139.41 156.411 134.558 160.893 129.204C163.258 126.378 165.586 123.438 168.02 120.68C168.341 120.085 168.973 119.204 169.383 118.645C173.227 113.413 176.007 108.233 178.597 102.291Z"/><path fill="#F9F8F4" d="M146.372 144.343C146.416 145.612 146.547 146.413 145.957 147.55C143.814 151.678 140.417 155.402 138.505 159.656C133.639 170.482 130.371 182.77 130.691 194.69C130.864 201.107 133.932 208.866 138.546 213.321C140.509 215.216 152.917 222.198 155.539 221.442C156.018 219.777 155.557 215.834 155.702 214.031C156.03 209.946 158.441 202.493 161.406 199.743C161.981 199.186 163.675 196.44 164.222 195.659C165.923 193.281 167.712 190.967 169.585 188.723C170.46 187.689 170.374 187.634 171.443 187.544C160.627 200.659 155.288 209.407 157.418 226.825C157.525 227.699 157.705 228.447 158.265 229.141C158.68 229.276 159.1 229.417 159.516 229.547C158.705 229.508 157.855 229.43 157.041 229.369C142.208 227.316 128.721 219.667 119.348 207.988C118.157 206.461 113.55 199.737 113.059 197.97C113.176 197.896 113.293 197.822 113.41 197.747C114.485 187.641 122.114 170.458 128.65 163.955C129.67 161.077 143.586 147.169 146.372 144.343Z"/><path fill="#F9F8F4" d="M113.059 197.97C113.176 197.896 113.293 197.822 113.41 197.747C114.485 187.641 122.114 170.458 128.65 163.955C128.031 166.497 122.802 173.022 121.461 176.464C119.114 182.483 116.871 186.471 117.981 193.348C118.2 195.195 118.038 197.463 118.43 199.686C118.911 202.419 119.484 205.241 119.348 207.988C118.157 206.461 113.55 199.737 113.059 197.97Z"/><path fill="#F9F8F4" d="M161.406 199.743C161.981 199.186 163.675 196.44 164.222 195.659C165.923 193.281 167.712 190.967 169.585 188.723C170.46 187.689 170.374 187.634 171.443 187.544C160.627 200.659 155.288 209.407 157.418 226.825C157.525 227.699 157.705 228.447 158.265 229.141C158.68 229.276 159.1 229.417 159.516 229.547C158.705 229.508 157.855 229.43 157.041 229.369C156.856 227.764 156.295 225.976 156.146 224.105C155.282 213.296 156.894 209.03 161.406 199.743Z"/><path fill="#F9F8F4" d="M178.597 102.291C180.955 99.2073 181.557 93.7899 182.75 90.2185C183.042 91.8749 182.485 92.8955 182.294 94.3208C183.259 94.1382 184.085 93.1502 184.717 92.2342C196.273 75.4796 180.765 59.8412 182.421 42.327C182.655 39.8548 183.3 34.9109 183.246 33.0443C181.923 32.7728 180.608 32.4636 179.303 32.1172C180.474 31.982 181.428 32.395 183.058 32.3167L183.355 32.3011C187.226 33.0279 195.031 34.9914 198.301 37.0773C196.94 37.1134 194.167 36.176 193.558 36.3812C191.764 38.2422 190.233 43.6378 189.719 46.2953C186.818 61.3012 199.56 74.9651 192.533 90.1066C192.224 90.7728 189.704 96.4695 189.7 96.4258C191.396 95.1065 194.154 88.3669 194.812 86.1322C195.332 86.4303 195.172 86.3672 195.433 87.1089C194.834 90.7925 191.897 95.2768 189.767 98.2617C189.368 98.8202 188.565 100.528 188.129 100.806C187.734 99.856 188.682 99.0836 188.604 97.8897L188.518 98.0348C187.488 99.733 178.414 109.214 176.879 109.977C172.81 111.999 171.989 119.068 168.02 120.68C168.341 120.085 168.973 119.204 169.383 118.645C173.227 113.413 176.007 108.233 178.597 102.291Z"/><path fill="#F9F8F4" d="M183.414 176.902C184.191 176.156 185.469 175.154 186.341 174.466C196.595 166.369 205.121 157.702 213.668 147.856C217.111 148.551 231.83 153.869 233.582 156.594C246.529 165.306 254.302 177.464 257.326 192.762C259.392 203.219 258.353 210.41 255.909 220.597C254.147 226.839 248.877 239.658 244.195 244.037C242.132 245.367 240.329 248.102 238.777 249.592C235.286 252.943 225.521 262.117 221.723 263.704C220.973 263.586 220.865 263.433 220.322 262.906C214.85 262.858 210.803 262.981 205.358 263.68C199.051 264.516 192.56 262.977 186.338 262.472C176.57 261.68 166.99 261.06 157.998 256.734C156.86 256.296 155.252 256.232 154.156 255.775C142.745 251.022 128.477 244.349 127.873 230.089C127.711 226.268 127.058 225.998 129.532 222.77C131.23 220.553 131.91 221.623 132.553 220.877C131.604 219.672 128.883 218.213 127.664 217.174C122.004 212.351 117.022 206.714 113.764 199.989C112.989 198.391 111.082 196.95 110.8 194.868L111.66 194.861C112.061 195.821 112.551 197.101 113.059 197.97C113.55 199.737 118.157 206.461 119.348 207.988C128.721 219.667 142.208 227.316 157.041 229.369C157.855 229.43 158.705 229.508 159.516 229.547C161.495 229.554 163.844 229.975 165.946 230.011C182.84 230.301 199.626 225.535 209.978 211.302C218.87 199.078 216.099 186.045 202.173 179.533C195.906 176.603 190.383 175.561 183.414 176.902Z"/><path fill="#F9F8F4" d="M233.582 156.594C246.529 165.306 254.302 177.464 257.326 192.762C259.392 203.219 258.353 210.41 255.909 220.597C255.465 220.434 252.913 220.356 251.893 220.108C248.938 219.391 245.19 220.736 242.186 220.405C241.918 220.375 241.611 220.081 241.499 219.822C239.412 214.969 240.304 211.124 240.539 206.371C240.828 200.503 240.296 197.497 241.847 191.383C242.793 187.657 246.083 183.091 248.142 179.678C248.234 179.525 250.521 178.962 250.821 178.69C251.297 178.258 251.179 178.266 251.31 177.593C250.803 175.624 249.733 174.011 248.599 172.357C244.371 166.189 239.698 161.348 233.548 157.145L233.425 157.062L233.582 156.594Z"/></svg>