<?xml version="1.0" encoding="utf-8" ?><svg xmlns="http://www.w3.org/2000/svg" xmlns:xlink="http://www.w3.org/1999/xlink" width="855" height="308" viewBox="0 0 855 308"><path fill="#F9F8F4" d="M210.472 271.533C209.381 273.581 197.515 277.959 194.817 278.877C173.453 286.066 150.529 287.278 128.525 282.382C74.6606 270.703 38.7054 225.315 50.7273 169.699C52.7404 160.386 58.3001 144.447 63.0715 135.976C78.1085 109.278 97.0324 75.4434 118.257 53.1815C122.22 49.0391 126.649 45.368 131.455 42.241C145.184 33.4925 160.925 31.6747 176.649 35.1118C182.608 36.5593 187.031 37.4337 192.558 40.1762C205.193 45.8444 214.224 55.1962 221.197 66.9468C223.295 71.2113 225.882 76.2727 226.957 80.6373C232.773 104.26 224.721 128.938 210.318 147.883C209.635 148.782 208.928 149.846 208.412 150.89C209.857 151.408 212.497 152.267 213.806 152.861C219.595 154.516 226.714 158.235 231.433 162.068C262.613 187.397 257.674 231.654 229.99 256.749C226.252 261.147 215.752 269.284 210.472 271.533ZM107.373 200.827C108.186 200.211 109.564 194.452 109.905 193.108C113.321 179.657 122.569 165.675 132.655 156.079C133.571 154.609 144.866 143.512 146.74 141.668C151.531 136.953 155.17 132.772 159.594 127.66C167.237 117.718 170.736 112.237 175.179 100.3C176.127 94.1427 176.782 82.4493 168.046 81.5591C153.309 80.0573 141.283 97.439 133.062 107.524C114.985 130.818 94.8402 170.789 107.183 200.487L107.373 200.827ZM155.393 206.07C151.224 215.454 150.92 220.585 152.181 230.922C152.283 231.533 152.419 231.697 152.724 232.246C159.857 235.284 178.53 232.064 185.975 229.099C189.089 227.858 193.628 224.938 196.547 222.986C196.797 222.606 201.261 218.238 201.976 217.473C215.501 203.004 210.573 186.31 191.667 180.802C186.876 179.407 183.416 179.681 178.366 179.948C169.568 184.657 160.263 197.436 155.393 206.07Z"/><path fill="#F9F8F4" d="M184.949 38.4047C187.965 39.7537 189.29 40.5017 192.558 40.1762C205.193 45.8444 214.224 55.1962 221.197 66.9468C223.295 71.2113 225.882 76.2727 226.957 80.6373C232.773 104.26 224.721 128.938 210.318 147.883C209.635 148.782 208.928 149.846 208.412 150.89C206.346 153.374 195.223 166.229 192.928 167.057C188.231 172.046 182.921 175.565 178.366 179.948C169.568 184.657 160.263 197.436 155.393 206.07C151.224 215.454 150.92 220.585 152.181 230.922C152.097 231.942 152.264 231.564 151.522 232.329C148.249 232.737 141.081 229.785 137.419 228.891C125.142 223.032 112.604 213.888 107.373 200.827C108.186 200.211 109.564 194.452 109.905 193.108C113.321 179.657 122.569 165.675 132.655 156.079C133.571 154.609 144.866 143.512 146.74 141.668C151.531 136.953 155.17 132.772 159.594 127.66C167.237 117.718 170.736 112.237 175.179 100.3C176.318 98.8726 179.529 86.4304 180.027 83.7256C180.406 81.6696 180.315 78.5301 181.308 76.7482C182.099 75.834 183.114 56.2393 183.143 53.6605C183.235 51.5206 184.871 51.6864 184.907 49.2361L184.575 49.0787C183.167 50.386 182.9 50.8543 181.951 52.4485C181.53 51.2438 184.256 40.3428 184.949 38.4047Z"/><path fill="#F9F8F4" d="M221.197 66.9468C223.295 71.2113 225.882 76.2727 226.957 80.6373C232.773 104.26 224.721 128.938 210.318 147.883C209.635 148.782 208.928 149.846 208.412 150.89C206.346 153.374 195.223 166.229 192.928 167.057L192.852 166.845C192.938 166.356 205.213 153.341 206.787 151.125C202.149 151.001 198.538 151.026 193.965 151.738C190.799 152.23 185.441 152.985 183.005 150.694C181.289 146.823 186.558 138.519 188.783 135.576C200.738 119.767 206.468 110.105 208.916 90.0231C209.449 85.6505 210.091 76.173 211.496 72.146L211.638 72.03C213.246 70.7284 218.625 67.3821 220.41 67.7803L221.197 66.9468Z"/><path fill="#F9F8F4" d="M107.373 200.827C108.186 200.211 109.564 194.452 109.905 193.108C113.321 179.657 122.569 165.675 132.655 156.079L132.652 156.208C132.588 158.328 131.669 159.148 130.914 161.032C130.235 162.578 129.624 164.268 129.044 165.834C128.454 167.022 130.005 169.593 129.443 170.598C121.458 184.861 119.86 206.882 132.02 219.392C136.48 223.981 142.876 229.159 149.671 229.268C150.022 229.274 150.185 229.311 150.528 229.206C149.568 223.061 148.854 209.407 155.393 206.07C151.224 215.454 150.92 220.585 152.181 230.922C152.097 231.942 152.264 231.564 151.522 232.329C148.249 232.737 141.081 229.785 137.419 228.891C125.142 223.032 112.604 213.888 107.373 200.827Z"/><path fill="#F9F8F4" d="M183.143 53.6605C183.793 54.7874 184.269 56.0792 183.94 57.4034L185.225 56.9665C187.032 58.7346 186.227 61.3787 187.041 63.082C187.054 62.5225 187.015 62.021 187.243 61.5136C191.538 74.5879 195.338 85.6774 188.716 99.0629C187.263 102 178.009 114.403 176.079 115.5L175.687 115.348C176.407 114.757 179.441 110.273 179.51 109.609L177.512 110.441L177.327 109.941C179.044 107.393 181.394 105.043 181.319 102.049L180.905 101.223C178.182 103.413 177.514 104.642 174.307 106.268C171.522 111.793 165.103 124.661 159.594 127.66C167.237 117.718 170.736 112.237 175.179 100.3C176.318 98.8726 179.529 86.4304 180.027 83.7256C180.406 81.6696 180.315 78.5301 181.308 76.7482C182.099 75.834 183.114 56.2393 183.143 53.6605Z"/><path fill="#F9F8F4" d="M208.412 150.89C209.857 151.408 212.497 152.267 213.806 152.861C219.595 154.516 226.714 158.235 231.433 162.068C262.613 187.397 257.674 231.654 229.99 256.749C227.709 257.689 226.516 257.939 224.714 259.72C223.643 260.78 220.861 263.154 219.342 263.308C206.953 264.562 194.354 265.437 182.023 263.164C175.043 262.279 168.126 261.933 161.356 259.848C149.007 256.043 123.793 246.784 130.96 229.329C133.417 227.16 133.97 228.748 137.419 228.891C141.081 229.785 148.249 232.737 151.522 232.329C152.264 231.564 152.097 231.942 152.181 230.922C152.283 231.533 152.419 231.697 152.724 232.246C159.857 235.284 178.53 232.064 185.975 229.099C189.089 227.858 193.628 224.938 196.547 222.986C196.797 222.606 201.261 218.238 201.976 217.473C215.501 203.004 210.573 186.31 191.667 180.802C186.876 179.407 183.416 179.681 178.366 179.948C182.921 175.565 188.231 172.046 192.928 167.057C195.223 166.229 206.346 153.374 208.412 150.89Z"/><path fill="#F9F8F4" d="M208.412 150.89C209.857 151.408 212.497 152.267 213.806 152.861C211.606 152.866 211.543 152.54 209.797 153.583C209.253 154.534 208.655 155.534 208.168 156.507C211.794 172.762 222.642 175.218 221.512 195.79C221.182 201.793 219.715 207.46 216.457 212.555C211.907 219.671 204.281 225.606 195.928 227.407C194.313 227.756 192.612 227.679 190.969 227.639C192.901 226.625 195.241 225.556 196.747 224.039C196.704 223.571 196.737 223.407 196.547 222.986C196.797 222.606 201.261 218.238 201.976 217.473C215.501 203.004 210.573 186.31 191.667 180.802C186.876 179.407 183.416 179.681 178.366 179.948C182.921 175.565 188.231 172.046 192.928 167.057C195.223 166.229 206.346 153.374 208.412 150.89Z"/><path fill="#F9F8F4" d="M210.472 271.533C207.906 271.068 204.384 275.027 200.412 275.221C200.642 274.765 207.299 271.662 208.309 271.255L208.407 270.797C206.062 270.276 198.021 271.48 195.111 271.543C164.075 272.216 131.876 263.763 113.198 237.046C109.023 231.075 101.37 222.276 103.881 214.175C105.3 209.6 109.347 212.226 112.383 210.955C112.39 210.336 107.445 202.926 106.703 201.004L107.183 200.487L107.373 200.827C112.604 213.888 125.142 223.032 137.419 228.891C133.97 228.748 133.417 227.16 130.96 229.329C123.793 246.784 149.007 256.043 161.356 259.848C168.126 261.933 175.043 262.279 182.023 263.164C194.354 265.437 206.953 264.562 219.342 263.308C220.861 263.154 223.643 260.78 224.714 259.72C226.516 257.939 227.709 257.689 229.99 256.749C226.252 261.147 215.752 269.284 210.472 271.533Z"/><path fill="#F9F8F4" d="M176.649 35.1118C182.608 36.5593 187.031 37.4337 192.558 40.1762C189.29 40.5017 187.965 39.7537 184.949 38.4047C184.256 40.3428 181.53 51.2438 181.951 52.4485C182.9 50.8543 183.167 50.386 184.575 49.0787L184.907 49.2361C184.871 51.6864 183.235 51.5206 183.143 53.6605C183.114 56.2393 182.099 75.834 181.308 76.7482C180.633 74.4935 180.302 72.9043 180.286 70.515C180.256 65.8759 176.716 66.0133 176.16 60.9847C176.67 60.9067 176.862 60.9386 177.36 60.9773C178.018 58.943 175.425 50.9216 175.456 48.1815C175.492 44.9344 176.08 40.1797 175.541 36.9345C175.267 35.2886 172.519 35.6879 171.301 35.1758C173.084 35.2062 174.867 35.1848 176.649 35.1118Z"/><path fill="#F9F8F4" d="M553.201 103.082L575.314 102.967C575.046 116.972 575.484 131.133 575.158 145.231C575.296 145.044 575.436 144.859 575.579 144.676C580.608 138.184 589.108 134.158 597.161 133.286C637.324 128.936 649.932 179.77 628.72 206.452C626.935 208.604 624.882 210.52 622.612 212.151C614.586 217.943 604.962 220.004 595.221 218.422C587.43 217.146 580.459 212.841 575.831 206.447C575.03 209.925 574.477 212.672 573.935 216.201C567.221 216.072 560.005 216.219 553.252 216.252C553.561 211.009 553.228 201.765 553.21 196.281L553.158 156.747L553.277 123.284C553.321 117.362 553.636 108.825 553.201 103.082ZM596.157 201.384C625.923 197.702 623.129 150.102 594.27 151.212C565.334 155.082 566.905 202.744 596.157 201.384Z"/><path fill="#F9F8F4" d="M454.704 132.832C465.321 132.01 478.225 137.645 482.641 147.811C483.53 146.686 484.436 145.576 485.359 144.48C491.559 137.204 498.312 133.833 507.647 133.044C524.62 131.61 536.949 141.406 539.961 158.054C541.225 163.966 540.506 170.045 540.728 176.023C541.218 189.137 539.964 203.255 540.906 216.283C533.527 216.219 526.148 216.214 518.768 216.269C518.82 215.331 518.857 214.392 518.878 213.453C519.168 197.866 519.139 180.563 518.531 165.011C518.031 152.227 499.542 148.923 491.923 157.091C483.912 165.679 486.356 189.234 486.398 200.951L486.472 216.301C480.962 215.995 470.306 216.105 464.799 216.389C464.983 214.552 464.99 212.561 464.979 210.707C464.861 196.355 465.436 181.945 464.838 167.608C464.243 157.515 458.283 151.579 448.171 152.774C432.802 154.618 432.495 170.123 432.946 182.225C433.194 188.88 432.811 195.898 432.959 202.598C433.062 207.227 432.788 211.741 433.341 216.353C426.608 216.018 417.78 216.272 410.888 216.292C411.43 211.504 411.05 194.958 411.05 189.5L410.994 135.075C417.295 135.186 425.332 135.253 431.539 134.923C431.772 137.919 432.202 141.292 432.523 144.318C439.059 136.13 444.798 134.271 454.704 132.832Z"/><path fill="#F9F8F4" d="M758.345 133.685C769.98 132.403 782.859 135.137 791.501 143.427C803.252 154.701 804.498 168.02 805.015 183.21C784.9 182.655 763.978 183.656 743.861 183.053C748.514 203.951 770.585 210.442 782.402 192.118L793.24 192.116C796.722 192.172 799.898 192.195 803.383 192.08C798.346 206.454 790.588 215.032 774.549 218.169C731.867 226.517 709.107 183.913 730.431 149.378C736.768 139.114 746.83 135.786 758.345 133.685ZM744.074 167.841C750.781 167.757 757.49 167.732 764.198 167.765C770.142 167.773 777.758 167.59 783.572 167.847C780.952 156.273 776.682 151.106 764.569 149.992C752.144 150.931 747.747 156.518 744.074 167.841Z"/><path fill="#F9F8F4" d="M677.112 133.329C684.717 132.015 698.463 135.204 704.46 140.02C711.194 145.429 714.183 150.527 715.461 159.016C708.348 159.082 701.235 159.099 694.121 159.068C693.387 156.874 692.686 155.029 690.991 153.34C685.545 147.912 672.701 147.717 667.343 153.297C663.063 157.756 666.287 164.163 671.897 165.886C684.138 169.647 698.195 167.832 709.098 175.452C715.089 179.749 716.556 185.273 716.882 192.171C717.542 206.149 706.904 214.732 694.235 217.727C689.79 218.778 685.772 218.76 681.133 218.831C662.798 218.817 646.48 212.095 643.852 192.064C650.369 191.914 657.27 191.987 663.813 191.961C664.825 194.071 666.058 196.448 667.707 198.202C673.653 204.525 688.195 204.987 694.378 198.912C695.396 197.911 696.668 195.001 696.28 193.623C693.442 183.533 676.31 185.898 668.199 183.342C662.637 182.045 655.857 179.925 651.558 175.866C642.649 167.455 644.042 151.302 652.05 142.814C659.144 135.295 667.531 133.787 677.112 133.329Z"/><path fill="#F9F8F4" d="M295.037 103.107L318.578 102.984C318.238 108.404 318.927 116.786 318.292 121.617C318.751 128.959 318.396 137.925 318.469 145.424C318.635 162.338 318.246 179.457 318.6 196.356C322.529 196.083 327.256 196.132 331.23 196.235C340.251 195.659 355.926 196.203 365.408 196.244C365.221 200.634 365.169 212.357 365.649 216.433C359.734 215.898 347.532 216.256 341.131 216.252L295.006 216.278C295.673 205.314 295.107 187.327 295.109 175.915L295.037 103.107Z"/><path fill="#F9F8F4" d="M317.663 197.449C317.154 182.087 317.774 165.172 317.892 149.718C317.921 145.904 317.611 124.401 318.292 121.617C318.751 128.959 318.396 137.925 318.469 145.424C318.635 162.338 318.246 179.457 318.6 196.356C322.529 196.083 327.256 196.132 331.23 196.235C327.321 197.599 321.782 198.226 317.663 197.449Z"/><path fill="#F9F8F4" d="M395.778 135.012C397.025 134.899 396.795 134.723 397.646 135.297C398.576 137.686 397.739 207.572 397.952 216.38C391.16 216.067 383.723 216.261 376.881 216.308L376.154 216.127C375.43 214.751 376.308 142.91 375.886 135.139L395.778 135.012Z"/><path fill="#F9F8F4" d="M384.016 99.2138C388.568 98.2032 393.313 99.7193 396.434 103.182C399.556 106.645 400.573 111.52 399.096 115.942C397.619 120.363 393.876 123.649 389.299 124.541C382.348 125.897 375.598 121.415 374.152 114.484C372.706 107.553 377.102 100.748 384.016 99.2138Z"/></svg>