<?xml version="1.0" encoding="utf-8" ?><svg xmlns="http://www.w3.org/2000/svg" xmlns:xlink="http://www.w3.org/1999/xlink" width="265" height="308" viewBox="0 0 265 308"><defs><linearGradient id="gradient_0" gradientUnits="userSpaceOnUse" x1="51.031906" y1="137.06731" x2="217.33153" y2="177.49341"><stop offset="0" stop-color="#021D3A"/><stop offset="1" stop-color="#053A4F"/></linearGradient></defs><path fill="url(#gradient_0)" d="M228.237 250.041C225.406 255.173 208.885 268.044 203.434 271.236C185.524 281.907 166.226 285.492 145.655 285.083C108.367 284.342 70.8253 268.668 51.787 234.994C29.1988 195.041 42.7138 156.198 64.009 119.348C69.7036 109.42 75.7399 99.6909 82.1072 90.1796C88.3482 80.7758 94.5471 71.9442 101.592 63.1107C108.843 54.0197 114.731 47.1029 125.095 41.1969C138.637 33.4199 154.727 31.3809 169.782 35.534C176.376 36.547 182.487 38.9559 188.318 42.1167C202.288 49.5794 212.465 62.7201 217.859 77.5469C220.85 85.7693 221.263 94.8166 220.491 103.517C219.271 117.267 213.542 131.014 206.014 142.505C204.392 144.979 201.191 148.568 200.105 151.139C201.154 151.306 204.206 151.95 204.921 152.629C216.508 155.061 229.612 166.169 235.807 175.9C249.555 197.491 246.539 224.966 232.103 245.429C231.384 246.448 229.189 249.391 228.237 250.041ZM99.7988 201.625C100.769 197.374 101.17 193.833 102.596 189.578C113.542 156.91 147.541 140.797 162.621 110.697C163.74 108.464 164.508 106.065 165.648 103.839C167.43 98.3499 169.039 92.3505 166.294 86.758C165.222 84.5722 163.525 82.6797 161.171 81.9759C157.343 80.8314 152.156 81.6889 148.759 83.6981C132.864 93.099 114.745 120.035 106.84 136.167C103.619 142.752 100.994 149.612 98.9962 156.665C94.5757 171.718 93.038 185.396 98.9059 200.332L99.7988 201.625ZM161.953 186.523C151.722 197.55 142.596 208.143 143.31 224.256C143.392 226.108 143.365 230.86 144.694 232.368C144.823 232.514 145.828 232.693 146.092 232.741C148.952 233.137 151.837 233.326 154.724 233.306C165.905 233.247 179.17 230.148 187.96 223.159C190.327 221.278 192.649 218.868 194.787 216.714C196.061 214.528 197.57 212.721 198.837 210.259C201.294 205.734 202.06 200.583 200.641 195.603C197.434 184.348 180.291 176.932 169.554 180.325C167.215 181.61 162.665 186.152 161.953 186.523Z"/><defs><linearGradient id="gradient_1" gradientUnits="userSpaceOnUse" x1="144.82677" y1="121.39891" x2="208.2373" y2="142.21057"><stop offset="0" stop-color="#A5333F"/><stop offset="1" stop-color="#FF5F5D"/></linearGradient></defs><path fill="url(#gradient_1)" d="M165.648 103.839C165.756 103.723 165.854 103.598 165.951 103.472C168.126 100.638 169.718 90.9738 168.436 87.6487C167.52 85.2711 165.338 82.7191 163.904 80.5715C161.263 76.6147 156.483 68.5311 155.17 64.0664C153.506 58.4047 152.471 52.8421 152.433 46.9301C152.421 45.1391 152.883 43.4476 152.914 41.707C152.936 40.48 152.538 39.1639 152.382 37.9422C152.265 37.0307 152.156 35.9837 152.819 35.2364C154.243 33.6324 166.67 35.7345 169.782 35.534C176.376 36.547 182.487 38.9559 188.318 42.1167C202.288 49.5794 212.465 62.7201 217.859 77.5469C220.85 85.7693 221.263 94.8166 220.491 103.517C219.271 117.267 213.542 131.014 206.014 142.505C204.392 144.979 201.191 148.568 200.105 151.139C197.565 153.898 195.149 156.775 192.592 159.508C185.489 167.103 177.54 173.699 169.554 180.325C167.215 181.61 162.665 186.152 161.953 186.523C151.722 197.55 142.596 208.143 143.31 224.256C143.392 226.108 143.365 230.86 144.694 232.368C144.823 232.514 145.828 232.693 146.092 232.741C140.284 232.666 131.744 229.926 126.48 227.537C116.699 223.165 108.439 215.982 102.753 206.902C101.821 205.432 100.395 203.209 99.7988 201.625C100.769 197.374 101.17 193.833 102.596 189.578C113.542 156.91 147.541 140.797 162.621 110.697C163.74 108.464 164.508 106.065 165.648 103.839Z"/><path fill="#632A39" d="M165.648 103.839C165.756 103.723 165.854 103.598 165.951 103.472C168.126 100.638 169.718 90.9738 168.436 87.6487C167.52 85.2711 165.338 82.7191 163.904 80.5715C161.263 76.6147 156.483 68.5311 155.17 64.0664C153.506 58.4047 152.471 52.8421 152.433 46.9301C152.421 45.1391 152.883 43.4476 152.914 41.707C152.936 40.48 152.538 39.1639 152.382 37.9422C152.265 37.0307 152.156 35.9837 152.819 35.2364C154.243 33.6324 166.67 35.7345 169.782 35.534C176.376 36.547 182.487 38.9559 188.318 42.1167C187.574 42.0703 187.07 41.8819 186.616 42.2483L187.003 42.0792L186.707 42.5326L187.194 42.0636L186.689 42.5094L186.973 42.0765L186.597 42.1926C186.948 43.9582 184.974 43.9688 183.909 45.4252C178.744 52.4888 181.702 61.1546 183.297 68.8629C185.19 78.4122 186.079 88.6814 181.753 97.6271C180.403 100.419 179.674 103.024 177.588 105.673C172.484 112.156 167.908 119.357 162.836 125.861C160.859 128.396 156.687 131.815 154.475 134.494C149.851 140.096 145.14 145.561 140.904 151.484C138.563 154.757 134.646 159.503 132.781 162.965C127.833 172.469 122.968 184.089 124.127 194.995C124.675 200.162 126.903 205.833 131.087 209.067C134.484 211.693 138.08 211.791 142.152 211.994C142.355 212.005 142.699 212.73 142.772 212.896C143.202 212.249 143.411 210.587 144.421 209.584C144.776 209.231 145.595 206.577 146.105 206.093C149.621 199.768 155.647 191.314 161.179 186.636L161.953 186.523C151.722 197.55 142.596 208.143 143.31 224.256C143.392 226.108 143.365 230.86 144.694 232.368C144.823 232.514 145.828 232.693 146.092 232.741C140.284 232.666 131.744 229.926 126.48 227.537C116.699 223.165 108.439 215.982 102.753 206.902C101.821 205.432 100.395 203.209 99.7988 201.625C100.769 197.374 101.17 193.833 102.596 189.578C113.542 156.91 147.541 140.797 162.621 110.697C163.74 108.464 164.508 106.065 165.648 103.839Z"/><defs><linearGradient id="gradient_2" gradientUnits="userSpaceOnUse" x1="85.820358" y1="221.3179" x2="244.48779" y2="210.23085"><stop offset="0" stop-color="#05425D"/><stop offset="1" stop-color="#1F868E"/></linearGradient></defs><path fill="url(#gradient_2)" d="M200.105 151.139C201.154 151.306 204.206 151.95 204.921 152.629C216.508 155.061 229.612 166.169 235.807 175.9C249.555 197.491 246.539 224.966 232.103 245.429C231.384 246.448 229.189 249.391 228.237 250.041C226.509 251.112 222.375 255.756 220.572 257.35C218.874 258.851 216.339 260.772 214.735 262.267C210.424 266.285 201.195 270.469 196.435 273.769C193.603 275.732 170.888 274.831 166.449 274.516C164.886 274.405 159.834 273.536 158.349 273.168C141.856 269.058 125.946 262.821 113.091 251.178C102.087 241.212 89.4531 227.942 85.9036 213.005C85.3544 210.694 85.8668 208.069 84.7458 205.932C84.3863 205.246 84.7874 202.94 84.9508 202.157C85.907 197.853 89.9774 197.513 93.2698 199.572C93.7867 199.894 94.5945 200.633 95.1496 200.789C96.0106 201.031 97.4667 201.432 98.2171 200.867C98.1717 199.644 96.94 198.679 96.606 197.398C95.9206 194.769 93.6056 189.358 94.3716 186.689C94.9532 190.074 96.0851 198.064 98.9059 200.332L99.7988 201.625C100.395 203.209 101.821 205.432 102.753 206.902C108.439 215.982 116.699 223.165 126.48 227.537C131.744 229.926 140.284 232.666 146.092 232.741C148.952 233.137 151.837 233.326 154.724 233.306C165.905 233.247 179.17 230.148 187.96 223.159C190.327 221.278 192.649 218.868 194.787 216.714C196.061 214.528 197.57 212.721 198.837 210.259C201.294 205.734 202.06 200.583 200.641 195.603C197.434 184.348 180.291 176.932 169.554 180.325C177.54 173.699 185.489 167.103 192.592 159.508C195.149 156.775 197.565 153.898 200.105 151.139Z"/><defs><linearGradient id="gradient_3" gradientUnits="userSpaceOnUse" x1="175.42549" y1="189.89636" x2="204.5984" y2="181.5853"><stop offset="0" stop-color="#001831"/><stop offset="1" stop-color="#014152"/></linearGradient></defs><path fill="url(#gradient_3)" d="M200.105 151.139C201.154 151.306 204.206 151.95 204.921 152.629C202.079 152.535 199.695 152.053 197.652 154.537C196.079 156.449 194.585 158.313 192.927 160.156C194.608 162.333 194.889 165.022 196.188 166.956C203.825 178.329 212.155 192.605 203.284 205.784C202.637 206.745 201.344 207.544 200.744 208.596C198.938 211.638 197.914 214.687 194.787 216.714C196.061 214.528 197.57 212.721 198.837 210.259C201.294 205.734 202.06 200.583 200.641 195.603C197.434 184.348 180.291 176.932 169.554 180.325C177.54 173.699 185.489 167.103 192.592 159.508C195.149 156.775 197.565 153.898 200.105 151.139Z"/></svg>