<svg xmlns:dc="http://purl.org/dc/elements/1.1/" xmlns:cc="http://creativecommons.org/ns#" xmlns:rdf="http://www.w3.org/1999/02/22-rdf-syntax-ns#" xmlns:svg="http://www.w3.org/2000/svg" xmlns="http://www.w3.org/2000/svg" xmlns:sodipodi="http://sodipodi.sourceforge.net/DTD/sodipodi-0.dtd" xmlns:inkscape="http://www.inkscape.org/namespaces/inkscape" width="15cm" height="15cm" x="0" y="0" viewBox="0 0 650.49691 650.49694" xml:space="preserve" class="" id="svg134" sodipodi:docname="Logo-lattes.svg" inkscape:version="1.0 (4035a4f, 2020-05-01)"><metadata></metadata><defs id="defs138">	</defs><path style="fill:#3BB7A2;fill-opacity:1;stroke:none;stroke-width:1.1474;stroke-opacity:1" id="path1060-0" sodipodi:type="arc" sodipodi:cx="317.49326" sodipodi:cy="328.35965" sodipodi:rx="300.40207" sodipodi:ry="300.164" sodipodi:start="0" sodipodi:end="6.2707666" sodipodi:open="true" sodipodi:arc-type="arc" d="M 617.89532,328.35965 A 300.40207,300.164 0 0 1 318.42591,628.5222 300.40207,300.164 0 0 1 17.096978,330.22346 300.40207,300.164 0 0 1 314.69534,28.208668 300.40207,300.164 0 0 1 617.87216,324.6321"></path><path d="M 634.25439,322.33463 A 300.40207,300.16403 0 0 1 334.78498,622.49721 300.40207,300.16403 0 0 1 33.456047,324.19844 300.40207,300.16403 0 0 1 331.05441,22.183613 300.40207,300.16403 0 0 1 634.23123,318.60707" sodipodi:arc-type="arc" sodipodi:open="true" sodipodi:end="6.2707666" sodipodi:start="0" sodipodi:ry="300.16403" sodipodi:rx="300.40207" sodipodi:cy="322.33463" sodipodi:cx="333.85233" sodipodi:type="arc" id="path1060" style="fill:#3BB7A2;fill-opacity:1;stroke:none;stroke-width:1.1474;stroke-opacity:1"></path><g id="g102" transform="translate(-132.67193,-257.77771)"></g><g id="g104" transform="translate(-132.67193,-257.77771)"></g><g id="g106" transform="translate(-132.67193,-257.77771)"></g><g id="g108" transform="translate(-132.67193,-257.77771)"></g><g id="g110" transform="translate(-132.67193,-257.77771)"></g><g id="g112" transform="translate(-132.67193,-257.77771)"></g><g id="g114" transform="translate(-132.67193,-257.77771)"></g><g id="g116" transform="translate(-132.67193,-257.77771)"></g><g id="g118" transform="translate(-132.67193,-257.77771)"></g><g id="g120" transform="translate(-132.67193,-257.77771)"></g><g id="g122" transform="translate(-132.67193,-257.77771)"></g><g id="g124" transform="translate(-132.67193,-257.77771)"></g><g id="g126" transform="translate(-132.67193,-257.77771)"></g><g id="g128" transform="translate(-132.67193,-257.77771)"></g><g id="g130" transform="translate(-132.67193,-257.77771)"></g><text x="15.96914" y="117.12631" class="fil12 fnt0" id="text1156" style="font-weight:normal;font-size:13.4148px;font-family:'Berlin Sans FB';clip-rule:evenodd;fill:#201e1e;fill-rule:evenodd;stroke-width:0.0137919;image-rendering:optimizeQuality;shape-rendering:geometricPrecision;text-rendering:geometricPrecision" transform="scale(1.0598936,0.94349093)"><tspan rotate="266" id="tspan1154" style="stroke-width:0.0137919"></tspan></text><text x="15.700867" y="113.77267" class="fil12 fnt0" id="text1160" style="font-weight:normal;font-size:13.4148px;font-family:'Berlin Sans FB';clip-rule:evenodd;fill:#201e1e;fill-rule:evenodd;stroke-width:0.0137919;image-rendering:optimizeQuality;shape-rendering:geometricPrecision;text-rendering:geometricPrecision" transform="scale(1.0598936,0.94349093)"><tspan rotate="266" id="tspan1158" style="stroke-width:0.0137919"></tspan></text><text x="15.944585" y="96.60157" class="fil12 fnt0" id="text1172" style="font-weight:normal;font-size:13.4148px;font-family:'Berlin Sans FB';clip-rule:evenodd;fill:#201e1e;fill-rule:evenodd;stroke-width:0.0137919;image-rendering:optimizeQuality;shape-rendering:geometricPrecision;text-rendering:geometricPrecision" transform="scale(1.0598936,0.94349093)"><tspan rotate="277" id="tspan1170" style="stroke-width:0.0137919"></tspan></text><text x="16.34717" y="93.247925" class="fil12 fnt0" id="text1176" style="font-weight:normal;font-size:13.4148px;font-family:'Berlin Sans FB';clip-rule:evenodd;fill:#201e1e;fill-rule:evenodd;stroke-width:0.0137919;image-rendering:optimizeQuality;shape-rendering:geometricPrecision;text-rendering:geometricPrecision" transform="scale(1.0598936,0.94349093)"><tspan rotate="280" id="tspan1174" style="stroke-width:0.0137919"></tspan></text><text x="39.143589" y="45.759277" class="fil12 fnt0" id="text1208" style="font-weight:normal;font-size:13.4148px;font-family:'Berlin Sans FB';clip-rule:evenodd;fill:#201e1e;fill-rule:evenodd;stroke-width:0.0137919;image-rendering:optimizeQuality;shape-rendering:geometricPrecision;text-rendering:geometricPrecision" transform="scale(1.0598936,0.94349093)"><tspan rotate="314" id="tspan1206" style="stroke-width:0.0137919"></tspan></text><text x="41.42421" y="43.344589" class="fil12 fnt0" id="text1212" style="font-weight:normal;font-size:13.4148px;font-family:'Berlin Sans FB';clip-rule:evenodd;fill:#201e1e;fill-rule:evenodd;stroke-width:0.0137919;image-rendering:optimizeQuality;shape-rendering:geometricPrecision;text-rendering:geometricPrecision" transform="scale(1.0598936,0.94349093)"><tspan rotate="316" id="tspan1210" style="stroke-width:0.0137919"></tspan></text><text x="55.514309" y="31.807775" class="fil12 fnt0" id="text1224" style="font-weight:normal;font-size:13.4148px;font-family:'Berlin Sans FB';clip-rule:evenodd;fill:#201e1e;fill-rule:evenodd;stroke-width:0.0137919;image-rendering:optimizeQuality;shape-rendering:geometricPrecision;text-rendering:geometricPrecision" transform="scale(1.0598936,0.94349093)"><tspan rotate="327" id="tspan1222" style="stroke-width:0.0137919"></tspan></text><text x="58.331596" y="30.063948" class="fil12 fnt0" id="text1228" style="font-weight:normal;font-size:13.4148px;font-family:'Berlin Sans FB';clip-rule:evenodd;fill:#201e1e;fill-rule:evenodd;stroke-width:0.0137919;image-rendering:optimizeQuality;shape-rendering:geometricPrecision;text-rendering:geometricPrecision" transform="scale(1.0598936,0.94349093)"><tspan rotate="330" id="tspan1226" style="stroke-width:0.0137919"></tspan></text><text x="113.86037" y="17.453983" class="fil12 fnt0" id="text1264" style="font-weight:normal;font-size:13.4148px;font-family:'Berlin Sans FB';clip-rule:evenodd;fill:#201e1e;fill-rule:evenodd;stroke-width:0.0137919;image-rendering:optimizeQuality;shape-rendering:geometricPrecision;text-rendering:geometricPrecision" transform="scale(1.0598936,0.94349093)"><tspan rotate="7" id="tspan1262" style="stroke-width:0.0137919"></tspan></text><text x="117.21413" y="17.722235" class="fil12 fnt0" id="text1268" style="font-weight:normal;font-size:13.4148px;font-family:'Berlin Sans FB';clip-rule:evenodd;fill:#201e1e;fill-rule:evenodd;stroke-width:0.0137919;image-rendering:optimizeQuality;shape-rendering:geometricPrecision;text-rendering:geometricPrecision" transform="scale(1.0598936,0.94349093)"><tspan rotate="10" id="tspan1266" style="stroke-width:0.0137919"></tspan></text><text x="148.44859" y="28.319939" class="fil12 fnt0" id="text1296" style="font-weight:normal;font-size:13.4148px;font-family:'Berlin Sans FB';clip-rule:evenodd;fill:#201e1e;fill-rule:evenodd;stroke-width:0.0137919;image-rendering:optimizeQuality;shape-rendering:geometricPrecision;text-rendering:geometricPrecision" transform="scale(1.0598936,0.94349093)"><tspan rotate="30" id="tspan1294" style="stroke-width:0.0137919"></tspan></text><text x="151.39995" y="30.063948" class="fil12 fnt0" id="text1300" style="font-weight:normal;font-size:13.4148px;font-family:'Berlin Sans FB';clip-rule:evenodd;fill:#201e1e;fill-rule:evenodd;stroke-width:0.0137919;image-rendering:optimizeQuality;shape-rendering:geometricPrecision;text-rendering:geometricPrecision" transform="scale(1.0598936,0.94349093)"><tspan rotate="33" id="tspan1298" style="stroke-width:0.0137919"></tspan></text><text x="159.47566" y="35.698074" class="fil12 fnt0" id="text1308" style="font-weight:normal;font-size:13.4148px;font-family:'Berlin Sans FB';clip-rule:evenodd;fill:#201e1e;fill-rule:evenodd;stroke-width:0.0137919;image-rendering:optimizeQuality;shape-rendering:geometricPrecision;text-rendering:geometricPrecision" transform="scale(1.0598936,0.94349093)"><tspan rotate="39" id="tspan1306" style="stroke-width:0.0137919"></tspan></text><text x="162.02455" y="37.710308" class="fil12 fnt0" id="text1312" style="font-weight:normal;font-size:13.4148px;font-family:'Berlin Sans FB';clip-rule:evenodd;fill:#201e1e;fill-rule:evenodd;stroke-width:0.0137919;image-rendering:optimizeQuality;shape-rendering:geometricPrecision;text-rendering:geometricPrecision" transform="scale(1.0598936,0.94349093)"><tspan rotate="41" id="tspan1310" style="stroke-width:0.0137919"></tspan></text><text x="174.46472" y="50.320271" class="fil12 fnt0" id="text1324" style="font-weight:normal;font-size:13.4148px;font-family:'Berlin Sans FB';clip-rule:evenodd;fill:#201e1e;fill-rule:evenodd;stroke-width:0.0137919;image-rendering:optimizeQuality;shape-rendering:geometricPrecision;text-rendering:geometricPrecision" transform="scale(1.0598936,0.94349093)"><tspan rotate="52" id="tspan1322" style="stroke-width:0.0137919"></tspan></text><text x="176.47694" y="53.003357" class="fil12 fnt0" id="text1328" style="font-weight:normal;font-size:13.4148px;font-family:'Berlin Sans FB';clip-rule:evenodd;fill:#201e1e;fill-rule:evenodd;stroke-width:0.0137919;image-rendering:optimizeQuality;shape-rendering:geometricPrecision;text-rendering:geometricPrecision" transform="scale(1.0598936,0.94349093)"><tspan rotate="54" id="tspan1326" style="stroke-width:0.0137919"></tspan></text><text x="193.3663" y="93.650391" class="fil12 fnt0" id="text1360" style="font-weight:normal;font-size:13.4148px;font-family:'Berlin Sans FB';clip-rule:evenodd;fill:#201e1e;fill-rule:evenodd;stroke-width:0.0137919;image-rendering:optimizeQuality;shape-rendering:geometricPrecision;text-rendering:geometricPrecision" transform="scale(1.0598936,0.94349093)"><tspan rotate="83" id="tspan1358" style="stroke-width:0.0137919"></tspan></text><text x="193.76886" y="97.004028" class="fil12 fnt0" id="text1364" style="font-weight:normal;font-size:13.4148px;font-family:'Berlin Sans FB';clip-rule:evenodd;fill:#201e1e;fill-rule:evenodd;stroke-width:0.0137919;image-rendering:optimizeQuality;shape-rendering:geometricPrecision;text-rendering:geometricPrecision" transform="scale(1.0598936,0.94349093)"><tspan rotate="86" id="tspan1362" style="stroke-width:0.0137919"></tspan></text><path id="path1050" d="m 300.73628,369.74996 c -0.92237,-0.74354 -11.73938,-2.38414 -26.50066,-4.01945 -6.27348,-0.69498 -113.45741,-16.16544 -139.28327,-20.10354 -4.97084,-0.75801 -6.51792,-3.66384 -10.87751,-20.43188 -6.7955,-26.13722 -7.78266,-35.39158 -7.67632,-71.96031 0.0789,-27.16308 0.86555,-36.3523 3.82492,-44.68647 2.04897,-5.77047 4.2146,-12.46061 4.81248,-14.86701 1.64559,-6.62407 17.77113,-33.17552 20.13686,-33.15645 1.14035,0.01 2.07335,-1.02759 2.07335,-2.30394 0,-3.58052 22.75205,-21.7092 35.57376,-28.34492 9.8199,-5.08222 28.34582,-12.43804 31.68344,-12.58014 0.57176,-0.0212 1.27972,-0.10244 1.57326,-0.1739 0.29367,-0.0714 1.97414,-0.43366 3.73495,-0.80455 1.76076,-0.37103 8.48376,-1.95456 14.93998,-3.5188 9.08229,-2.20057 20.91448,-2.80913 52.28982,-2.68947 22.3032,0.0849 46.79401,0.8618 54.42412,1.72581 20.06744,2.27279 66.76579,12.85125 85.37105,19.33893 17.20134,5.99809 38.41696,16.05523 38.41696,18.2112 0,3.47779 -9.15438,4.46747 -29.90193,3.23263 -28.66824,-1.70633 -83.88543,-2.16353 -94.95335,-0.78475 -18.24956,2.27085 -42.2312,11.65428 -51.5834,20.18337 -9.47988,8.6456 -17.67717,24.85793 -20.28093,40.11113 -4.66956,27.35551 3.12617,60.69452 26.10578,111.64222 12.98672,28.79275 14.717,33.36574 15.87128,41.94814 0.53634,3.98514 -0.18235,4.82097 -4.11799,4.78924 -2.62208,-0.021 -5.16754,-0.36111 -5.65665,-0.75529 z" style="fill:#ffffff;fill-opacity:1;stroke:none;stroke-width:0.477874;stroke-opacity:1"></path><path id="path1048" d="m 224.4482,551.055 c -6.57492,-10.7672 -43.26409,-81.19527 -43.88334,-84.23815 -0.1968,-0.966 -0.95871,-2.55046 -1.69364,-3.52093 -1.60728,-2.1223 -40.4453,-81.99557 -41.09021,-84.50497 -0.24786,-0.96641 -2.06208,-4.82581 -4.0304,-8.57626 -1.96828,-3.75054 -3.57876,-7.11727 -3.57876,-7.48179 0,-2.13222 23.85219,0.29792 56.98484,5.80611 53.90256,8.96085 67.99934,10.41641 104.1532,10.75382 36.405,0.33992 58.456,-1.58848 85.37106,-7.46516 7.04318,-1.53781 14.24633,-3.03089 16.00708,-3.31791 1.7607,-0.28742 3.44148,-0.67903 3.73505,-0.87105 0.60797,-0.39727 1.70802,-0.7139 8.824,-2.53792 9.87357,-2.5309 43.58643,-16.41116 53.22566,-21.91412 5.36847,-3.06482 12.69206,-8.28016 16.27436,-11.58961 3.58241,-3.30948 7.95629,-7.22167 9.71972,-8.69372 4.07063,-3.39804 14.04846,-21.77989 16.01544,-29.50482 2.85084,-11.19566 1.33995,-32.92356 -3.3263,-47.83549 -2.53414,-8.098 -4.8412,-15.51464 -5.1269,-16.4814 -0.2857,-0.9668 -1.06022,-2.94587 -1.72099,-4.39797 -3.65238,-8.02529 -5.82651,-15.02613 -5.6776,-18.282 0.0927,-2.02543 0.65264,-2.69232 1.24494,-1.48193 0.59245,1.21036 2.06169,2.20862 3.26574,2.21833 4.28462,0.0348 37.88168,27.68751 37.96146,31.24515 0.0141,1.1026 1.48567,2.47063 3.24645,3.03999 1.76063,0.56947 3.20133,1.8821 3.20133,2.91717 0,1.03512 1.89185,3.56575 4.20402,5.62365 6.2194,5.53515 20.98217,29.74886 26.97015,44.23627 24.64731,59.63131 -2.77216,123.80255 -74.53857,174.44646 -20.83755,14.70456 -60.07489,36.08228 -86.14075,46.93239 -45.23123,18.82781 -116.56597,38.04993 -158.8063,42.79264 -4.20965,0.47277 -9.19686,1.33345 -11.08265,1.91283 -2.57609,0.79145 -4.99034,-1.50375 -9.70809,-9.22961 z" style="fill:#ffffff;fill-opacity:1;stroke:none;stroke-width:0.477874;stroke-opacity:1"></path><path transform="matrix(0.90399436,0.42754438,-0.36262951,0.93193339,0,0)" d="M 545.34683,61.818642 A 93.798065,59.058392 0 0 1 451.84017,120.87675 93.798065,59.058392 0 0 1 357.75251,62.18559 93.798065,59.058392 0 0 1 450.67458,2.7628151 93.798065,59.058392 0 0 1 545.33959,61.084759" sodipodi:arc-type="arc" sodipodi:open="true" sodipodi:end="6.2707586" sodipodi:start="0" sodipodi:ry="59.058392" sodipodi:rx="93.798065" sodipodi:cy="61.818642" sodipodi:cx="451.54877" sodipodi:type="arc" id="path1062" style="fill:#ffffff;fill-opacity:1;stroke:none;stroke-width:1.14883;stroke-opacity:1"></path></svg>